<svg width="179" height="30" viewBox="0 0 179 30" fill="none" xmlns="http://www.w3.org/2000/svg">
<path d="M15.5718 6.15918L15.7827 3.15332C15.7827 2.25684 15.5762 1.60205 15.1631 1.18896L15.4268 0.912109C15.7871 1.26367 16.2266 1.43945 16.7451 1.43945H21.3989C21.9263 1.43945 22.3657 1.26367 22.7173 0.912109L22.981 1.18896C22.6382 1.53174 22.4668 1.97119 22.4668 2.50732V17.9321C22.4668 18.4595 22.6382 18.8989 22.981 19.2505L22.7173 19.5142C22.3745 19.1714 21.9351 19 21.3989 19H16.7451C16.209 19 15.7695 19.1714 15.4268 19.5142L15.1631 19.2505C15.4971 18.9165 15.6641 18.4771 15.6641 17.9321L15.6377 13.5024C15.6377 12.9751 15.8047 12.54 16.1387 12.1973L15.875 11.9336C15.541 12.2676 15.1016 12.4346 14.5566 12.4346H9.15137C8.61523 12.4346 8.17578 12.2676 7.83301 11.9336L7.56934 12.1973C7.58691 12.3994 7.5957 13.4629 7.5957 15.3877V21.3335C7.5957 22.1333 7.69678 23.2671 7.89893 24.7349C8.10107 26.2026 8.20215 27.2397 8.20215 27.8462C8.20215 28.4526 8.12744 28.8657 7.97803 29.0854C7.8374 29.3052 7.66602 29.415 7.46387 29.415C7.26172 29.415 7.08594 29.3052 6.93652 29.0854C6.7959 28.8745 6.72559 28.6548 6.72559 28.4263C6.72559 28.2065 6.76953 27.6924 6.85742 26.8838C7.12109 24.4404 7.25293 22.6035 7.25293 21.373C7.25293 20.7666 7.06836 20.2393 6.69922 19.791C5.97852 18.9209 4.98975 18.4858 3.73291 18.4858C3.09131 18.4858 2.55078 18.6353 2.11133 18.9341C1.68066 19.2329 1.46533 19.646 1.46533 20.1733C1.46533 20.7095 1.54883 21.4917 1.71582 22.52C1.8916 23.5483 1.97949 24.2603 1.97949 24.6558C1.97949 25.4731 1.72461 25.8818 1.21484 25.8818C0.977539 25.8818 0.775391 25.7896 0.608398 25.605C0.441406 25.4292 0.35791 25.1348 0.35791 24.7217C0.35791 24.3174 0.498535 23.5879 0.779785 22.5332C1.06982 21.4785 1.21484 20.6567 1.21484 20.0679V2.50732C1.21484 1.95361 1.04785 1.51416 0.713867 1.18896L0.964355 0.912109C1.32471 1.26367 1.76416 1.43945 2.28271 1.43945H7.01562C7.53418 1.43945 7.96924 1.26367 8.3208 0.912109L8.59766 1.18896C8.19336 1.59326 7.99121 2.25244 7.99121 3.1665L8.18896 6.19873C8.18896 7.104 7.98242 7.76318 7.56934 8.17627L7.83301 8.45312C8.17578 8.11035 8.61523 7.93896 9.15137 7.93896H14.6094C15.1455 7.93896 15.5806 8.11035 15.9146 8.45312L16.1914 8.17627C15.7783 7.75439 15.5718 7.08203 15.5718 6.15918ZM34.3452 16.8115L34.1343 15.1768V15.0317C34.3188 14.7065 34.5693 14.5439 34.8857 14.5439L45.6436 14.5571C46.1797 14.5571 46.6147 14.3857 46.9487 14.043L47.2124 14.3066C46.8257 14.6934 46.6323 15.4316 46.6323 16.5215C46.6323 16.5215 46.6323 16.7764 46.6323 17.2861C46.6323 18.1738 46.8257 18.8198 47.2124 19.2241L46.9487 19.4878C46.606 19.145 46.1709 18.9736 45.6436 18.9736H30.0474C29.2651 18.9736 28.6895 19.123 28.3203 19.4219C27.8984 19.7734 27.6875 20.7666 27.6875 22.4014C27.6875 23.0605 27.7886 24.0317 27.9907 25.3149C28.1929 26.6069 28.2939 27.5781 28.2939 28.2285C28.2939 29.1689 27.96 29.6392 27.292 29.6392C26.5713 29.6392 26.2109 29.1558 26.2109 28.189C26.2109 27.5298 26.356 26.5542 26.646 25.2622C26.936 23.9702 27.0811 22.9902 27.0811 22.3223L27.0151 17.9058V2.53369C27.0151 1.98877 26.8481 1.55371 26.5142 1.22852L26.7778 0.95166C27.1382 1.29443 27.5776 1.46582 28.0962 1.46582H45.0239C45.5601 1.46582 45.9995 1.29443 46.3423 0.95166L46.606 1.22852C46.2192 1.61523 46.0259 2.34473 46.0259 3.41699V4.15527C46.0259 5.0957 46.2192 5.75488 46.606 6.13281L46.3423 6.3833C45.9028 5.93506 44.8701 5.71094 43.2441 5.71094L36.6919 6.01416C35.0747 6.01416 34.0464 5.79004 33.6069 5.3418L33.3301 5.60547C33.6729 5.93945 33.8442 6.3833 33.8442 6.93701C33.8442 7.48193 33.6729 7.92139 33.3301 8.25537L33.6069 8.50586C34.0288 8.06641 34.9165 7.84668 36.27 7.84668L41.7939 8.1499C43.1562 8.1499 44.0571 7.93018 44.4966 7.49072L44.7734 7.75439C44.3867 8.14111 44.1934 8.88379 44.1934 9.98242V10.7207C44.1934 11.626 44.3867 12.2808 44.7734 12.6851L44.4966 12.9619C44.0747 12.5225 43.1826 12.3027 41.8203 12.3027L36.2964 12.5928C34.9429 12.5928 34.0464 12.373 33.6069 11.9336L33.3433 12.1973C33.6069 12.4609 33.7607 12.7773 33.8047 13.1465C33.8486 13.5068 33.875 13.7661 33.8838 13.9243C33.8926 14.0737 33.8926 14.311 33.8838 14.6362C33.875 14.9526 33.8706 15.1416 33.8706 15.2031L33.6465 16.7852C33.6465 17.1016 33.7607 17.2598 33.9893 17.2598C34.2266 17.2598 34.3452 17.1104 34.3452 16.8115ZM71.7471 23.3242L72.0371 20.5952C72.0371 19.4878 71.5845 18.644 70.6792 18.064C69.7827 17.4751 68.8379 17.2158 67.8447 17.2861C66.8516 17.3477 66.1572 17.6816 65.7617 18.2881C65.5596 18.5781 65.4585 18.9209 65.4585 19.3164L65.3926 22.8496C65.3926 23.333 65.4673 24.0493 65.6167 24.9985C65.7661 25.9565 65.8408 26.6772 65.8408 27.1606C65.8408 28.0132 65.5991 28.4395 65.1157 28.4395C64.6323 28.4395 64.3906 28.0264 64.3906 27.2002C64.3906 26.6553 64.4697 25.873 64.6279 24.8535C64.7861 23.834 64.874 23.0605 64.8916 22.5332C64.918 22.0059 64.9312 20.8809 64.9312 19.1582C64.9312 18.7012 64.7905 18.1738 64.5093 17.5762C64.228 16.9785 63.7842 16.1567 63.1777 15.1108C62.5713 14.0649 62.0747 13.1421 61.688 12.3423L61.2925 12.1182C61.0815 12.5049 60.708 12.6982 60.1719 12.6982L59.0645 12.7378C58.3086 12.7378 57.7417 12.5532 57.3638 12.1841L57.0869 12.4478C57.1133 12.7729 57.1265 13.4673 57.1265 14.5308L57.1133 17.7607C57.1133 18.7275 57.1309 19.4395 57.166 19.8965L57.4165 21.8345C57.4165 22.1948 57.2935 22.375 57.0474 22.375C56.8013 22.375 56.6782 22.208 56.6782 21.874L56.8892 20.2393C56.8892 19.8438 56.7705 19.5273 56.5332 19.29C56.3047 19.0615 56.0015 18.9473 55.6235 18.9473C55.2544 18.9473 54.9248 19.1099 54.6348 19.4351C54.3535 19.769 54.2129 20.1997 54.2129 20.7271C54.2129 21.2544 54.3096 21.9663 54.5029 22.8628C54.6963 23.7681 54.793 24.4185 54.793 24.814C54.793 25.6401 54.4985 26.0532 53.9097 26.0532C53.3208 26.0532 53.0264 25.6489 53.0264 24.8403C53.0264 24.4624 53.1099 23.8032 53.2769 22.8628C53.4526 21.9224 53.5405 21.1753 53.5405 20.6216C53.5405 20.0679 53.4131 19.6108 53.1582 19.2505C52.9033 18.8989 52.6133 18.7231 52.2881 18.7231C51.9629 18.7231 51.686 18.833 51.4575 19.0527C51.229 19.2812 51.1147 19.5625 51.1147 19.8965L51.4707 23.021C51.4707 23.5571 51.2729 23.8252 50.8774 23.8252C50.4819 23.8252 50.2842 23.5527 50.2842 23.0078C50.2842 22.6914 50.3677 22.1377 50.5347 21.3467C50.7017 20.5645 50.7808 19.9536 50.772 19.5142C50.7632 19.0747 50.7588 13.3882 50.7588 2.45459C50.7588 1.90967 50.5918 1.47461 50.2578 1.14941L50.5215 0.885742C50.8643 1.21973 51.2993 1.38672 51.8267 1.38672H63.6392C65.4849 1.38672 66.7241 1.44385 67.3569 1.55811C67.9985 1.66357 68.5566 1.77783 69.0312 1.90088C69.5146 2.02393 69.9189 2.17773 70.2441 2.3623C70.5781 2.53809 70.9121 2.76221 71.2461 3.03467C71.5889 3.29834 71.8613 3.60156 72.0635 3.94434C72.5293 4.72656 72.7622 5.55713 72.7622 6.43604C72.7622 7.31494 72.6919 8.03564 72.5513 8.59814C72.4194 9.15186 72.1953 9.6748 71.8789 10.167C71.1934 11.2305 69.9893 11.7622 68.2666 11.7622L68.1611 12.0654C68.7148 12.2852 69.084 12.5884 69.2686 12.9751C70.042 14.6626 70.6133 15.7349 70.9824 16.1919C71.3516 16.6401 71.6943 17.0005 72.0107 17.2729C72.3271 17.5454 72.7798 17.8223 73.3687 18.1035C73.9575 18.3848 74.3135 18.5693 74.4365 18.6572C74.5596 18.7363 74.6211 18.8022 74.6211 18.855C74.6211 19.7339 74.7397 20.8633 74.9771 22.2432C75.2144 23.623 75.333 24.5107 75.333 24.9062C75.333 25.3018 75.3154 25.5874 75.2803 25.7632C75.2539 25.939 75.188 26.1104 75.0825 26.2773C74.9771 26.4531 74.8232 26.541 74.6211 26.541C74.4189 26.541 74.2651 26.396 74.1597 26.106C74.063 25.8159 74.0146 25.46 74.0146 25.0381C74.0146 24.6162 74.0718 23.8604 74.186 22.7705C74.3003 21.6895 74.3574 20.8721 74.3574 20.3184C74.3574 19.2197 74.0015 18.6704 73.2896 18.6704C72.938 18.6704 72.6743 18.7319 72.4985 18.855C72.3315 18.978 72.248 19.2285 72.248 19.6064C72.248 19.9932 72.3271 20.604 72.4854 21.439C72.6436 22.2739 72.7227 22.9023 72.7227 23.3242C72.7227 23.7549 72.5601 23.9702 72.2349 23.9702C71.9097 23.9702 71.7471 23.7549 71.7471 23.3242ZM62.9668 5.76367L59.8555 5.85596C58.5811 5.85596 57.7505 5.66699 57.3638 5.28906L57.0869 5.53955C57.4385 5.88232 57.6143 6.32178 57.6143 6.85791V7.74121C57.6143 8.26855 57.4385 8.70801 57.0869 9.05957L57.3638 9.32324C57.7417 8.93652 58.5239 8.74316 59.7104 8.74316L63.0459 8.86182C63.9336 8.86182 64.6191 8.74756 65.1025 8.51904C65.5947 8.28174 65.8408 7.85107 65.8408 7.22705C65.8408 6.83154 65.7046 6.52393 65.4321 6.3042C65.1597 6.07568 64.8301 5.93066 64.4434 5.86914C64.0566 5.79883 63.5645 5.76367 62.9668 5.76367ZM84.0869 26.106L84.2319 22.5991C84.2319 21.4653 84.188 20.749 84.1001 20.4502C84.021 20.1514 83.9375 19.8877 83.8496 19.6592C83.7617 19.4307 83.6475 19.2461 83.5068 19.1055C83.3662 18.9648 83.1992 18.833 83.0059 18.71C82.6367 18.4639 82.0566 18.3408 81.2656 18.3408C80.4746 18.3408 79.8066 18.6616 79.2617 19.3032C78.7256 19.9448 78.4575 20.7139 78.4575 21.6104C78.4575 21.9443 78.5234 22.4409 78.6553 23.1001C78.7871 23.7681 78.853 24.269 78.853 24.603C78.853 25.2358 78.6289 25.5522 78.1807 25.5522C77.7324 25.5522 77.5083 25.2446 77.5083 24.6294C77.5083 24.2866 77.5742 23.7725 77.7061 23.0869C77.8467 22.4014 77.917 21.8828 77.917 21.5312L78.0093 17.998V2.50732C78.0093 1.9624 77.8379 1.52295 77.4951 1.18896L77.7588 0.912109C78.1279 1.26367 78.5674 1.43945 79.0771 1.43945H83.8496C84.377 1.43945 84.8164 1.26367 85.168 0.912109L85.4316 1.18896C85.0889 1.53174 84.9175 1.97119 84.9175 2.50732V17.9321C84.9175 18.3892 84.8691 19.1758 84.7725 20.292C84.6758 21.417 84.645 22.2827 84.6802 22.8892H84.667C84.9922 24.3481 85.1548 25.46 85.1548 26.2246C85.1548 26.9893 85.0098 27.3716 84.7197 27.3716C84.2979 27.3716 84.0869 26.9497 84.0869 26.106ZM88.5166 4.854L88.5825 3.1665C88.5825 2.19971 88.3936 1.53174 88.0156 1.1626L88.2793 0.898926C88.6309 1.2417 89.0659 1.41309 89.5845 1.41309H106.895C107.431 1.41309 107.87 1.2417 108.213 0.898926L108.477 1.1626C108.143 1.49658 107.976 1.93604 107.976 2.48096L107.91 4.16846C107.91 5.11768 108.099 5.78125 108.477 6.15918L108.213 6.43604C107.817 6.03174 107.176 5.82959 106.288 5.82959L103.375 6.01416C102.452 6.01416 101.788 5.81201 101.384 5.40771L101.107 5.67139C101.45 6.00537 101.621 6.44482 101.621 6.98975V17.9321C101.621 18.8462 101.7 20.2085 101.858 22.019C102.025 23.8296 102.109 25.0205 102.109 25.5918C102.109 26.5938 101.929 27.0947 101.568 27.0947C101.208 27.0947 101.028 26.7388 101.028 26.0269C101.028 25.3149 101.085 24.3481 101.199 23.1265C101.322 21.9136 101.384 20.9995 101.384 20.3843C101.384 19.4263 101.195 18.9473 100.817 18.9473C100.632 18.9473 100.487 19.0571 100.382 19.2769C100.276 19.4966 100.224 19.7119 100.224 19.9229L100.527 22.6782C100.527 23.311 100.347 23.6274 99.9863 23.6274C99.8018 23.6274 99.6655 23.5352 99.5776 23.3506C99.4897 23.166 99.4458 22.9507 99.4458 22.7046C99.4458 22.4585 99.5249 22.0542 99.6831 21.4917C99.8413 20.938 99.9204 20.4854 99.9204 20.1338C99.9204 19.7822 99.7666 19.5142 99.459 19.3296C99.1602 19.145 98.7778 19.0527 98.312 19.0527C97.855 19.0527 97.376 19.145 96.875 19.3296C96.3828 19.5142 95.9478 19.7998 95.5698 20.1865C95.1919 20.582 95.0029 20.9688 95.0029 21.3467C95.0029 21.7334 95.0601 22.1992 95.1743 22.7441C95.2974 23.2891 95.3589 23.7417 95.3589 24.1021C95.3589 24.4712 95.1963 24.6558 94.8711 24.6558C94.502 24.6558 94.3174 24.458 94.3174 24.0625C94.3174 23.6758 94.3877 23.1836 94.5283 22.5859C94.6689 21.9883 94.7393 21.54 94.7393 21.2412V17.8135C94.7568 12.9971 94.7656 9.38916 94.7656 6.98975C94.7656 6.43604 94.9326 5.99658 95.2666 5.67139L95.0029 5.40771C94.6162 5.80322 93.9746 6.00098 93.0781 6.00098L90.2437 5.82959C89.3384 5.82959 88.6836 6.03174 88.2793 6.43604L88.0156 6.15918C88.3496 5.8252 88.5166 5.39014 88.5166 4.854ZM99.8809 25.6182C100.092 26.585 100.197 27.4243 100.197 28.1362C100.197 28.4438 100.087 28.5977 99.8677 28.5977C99.6479 28.5977 99.5381 28.457 99.5381 28.1758C99.5381 27.3848 99.6523 26.5322 99.8809 25.6182ZM107.646 19.8438L107.686 21.9399C107.686 22.3618 107.62 22.6782 107.488 22.8892C107.356 23.1089 107.198 23.2188 107.013 23.2188C106.644 23.2188 106.459 22.8628 106.459 22.1509C106.459 21.439 106.547 20.6479 106.723 19.7778C106.899 18.9165 107.053 18.3232 107.185 17.998L113.513 2.42822C113.601 2.19971 113.645 1.97559 113.645 1.75586C113.645 1.53613 113.57 1.3208 113.42 1.10986L113.79 0.872559C114.044 1.25049 114.44 1.43945 114.976 1.43945H121.041C121.568 1.43945 121.959 1.25049 122.214 0.872559L122.596 1.10986C122.447 1.3208 122.372 1.52295 122.372 1.71631C122.372 1.90967 122.425 2.14258 122.53 2.41504L129.043 18.0112C129.245 18.5034 129.557 18.8901 129.979 19.1714L129.821 19.4219C129.39 19.1406 128.911 19 128.384 19H125.8C125.817 19.1934 125.826 19.3296 125.826 19.4087C125.826 19.6987 125.708 19.8438 125.47 19.8438C125.365 19.8438 125.268 19.7998 125.18 19.7119C125.101 19.6328 125.062 19.5142 125.062 19.356C125.062 19.2065 125.07 19.0879 125.088 19H123.493C123.106 19 122.855 19.2109 122.741 19.6328C122.601 20.1514 122.53 20.7446 122.53 21.4126C122.53 22.0894 122.574 22.7046 122.662 23.2583C122.75 23.812 122.794 24.1899 122.794 24.3921C122.794 24.603 122.741 24.77 122.636 24.8931C122.539 25.0249 122.416 25.0908 122.267 25.0908C122.117 25.0908 121.99 25.0293 121.884 24.9062C121.779 24.7832 121.726 24.6118 121.726 24.3921C121.726 24.1724 121.779 23.7461 121.884 23.1133C121.999 22.4805 122.056 22.0059 122.056 21.6895V17.9849C121.968 17.7476 121.924 17.5278 121.924 17.3257C121.924 17.1235 122.003 16.9082 122.161 16.6797L121.818 16.4292C121.555 16.8071 121.159 16.9961 120.632 16.9961H115.213C114.686 16.9961 114.291 16.8115 114.027 16.4424L113.684 16.6797C113.851 16.917 113.935 17.1367 113.935 17.3389C113.935 17.541 113.904 17.7563 113.842 17.9849V17.998C113.763 18.2969 113.724 18.5254 113.724 18.6836C113.724 18.8418 113.812 19.0483 113.987 19.3032L113.645 19.5537C113.381 19.1846 112.985 19 112.458 19H107.686C107.659 19.167 107.646 19.4482 107.646 19.8438ZM116.571 13.3442H119.089C119.617 13.3442 120.091 13.4849 120.513 13.7661L120.685 13.5156C120.271 13.2344 119.973 12.8433 119.788 12.3423L118.114 8.05762C117.92 7.55664 117.819 7.04688 117.811 6.52832H117.639C117.622 7.1084 117.534 7.61816 117.375 8.05762L115.859 12.3291C115.675 12.8389 115.38 13.2344 114.976 13.5156L115.147 13.7793C115.561 13.4893 116.035 13.3442 116.571 13.3442ZM125.127 23.3638C125.127 22.7573 125.242 21.9971 125.47 21.083C125.725 22.1377 125.853 22.8232 125.853 23.1396C125.853 23.6055 125.729 23.8384 125.483 23.8384C125.246 23.8384 125.127 23.6802 125.127 23.3638ZM147.685 14.9131C147.351 14.6494 147.184 14.3418 147.184 13.9902V13.8848C147.184 13.5332 147.342 13.1992 147.658 12.8828L147.474 12.7114C147.157 13.0278 146.828 13.186 146.485 13.186H145.206C144.67 13.186 144.23 13.3574 143.888 13.7002L143.611 13.4233C143.962 13.0718 144.138 12.6367 144.138 12.1182V10.167C144.138 9.63965 143.962 9.2002 143.611 8.84863L143.888 8.58496C144.222 8.91895 144.661 9.08594 145.206 9.08594H153.301C153.846 9.08594 154.285 8.91895 154.619 8.58496L154.87 8.84863C154.536 9.18262 154.369 9.62207 154.369 10.167V15.6909C154.369 15.9634 154.404 16.1831 154.474 16.3501C154.553 16.5083 154.707 16.6489 154.936 16.772L154.725 17.1543C154.566 17.0752 154.386 17.0356 154.184 17.0356C153.991 17.0356 153.767 17.1191 153.512 17.2861C151.473 18.6484 148.572 19.4131 144.811 19.5801V20.8457L145.021 22.3091C145.021 22.52 144.978 22.6826 144.89 22.7969C144.802 22.9111 144.701 22.9683 144.586 22.9683C144.481 22.9683 144.384 22.9155 144.296 22.8101C144.208 22.7046 144.165 22.5991 144.165 22.4937C144.165 22.397 144.182 22.2607 144.217 22.085C144.323 21.54 144.375 20.9863 144.375 20.4238C144.375 19.8613 144.336 19.5801 144.257 19.5801C142.534 19.5801 140.724 19.4614 138.825 19.2241C138.746 19.1978 138.707 19.668 138.707 20.6348C138.707 21.6016 138.786 22.5991 138.944 23.6274C139.111 24.6558 139.194 25.3721 139.194 25.7764C139.194 26.5938 138.944 27.0024 138.443 27.0024C138.206 27.0024 137.999 26.9102 137.823 26.7256C137.656 26.541 137.573 26.2422 137.573 25.8291C137.573 25.4248 137.718 24.6953 138.008 23.6406C138.298 22.5947 138.443 21.7773 138.443 21.1885V19.1318C133.424 18.0068 130.915 14.979 130.915 10.0483C130.915 6.29541 132.462 3.67188 135.556 2.17773C137.34 1.30762 139.52 0.872559 142.095 0.872559C146.252 0.872559 149.442 1.68555 151.666 3.31152C152.87 4.19043 153.639 5.19238 153.973 6.31738C154.131 6.84473 154.413 7.24902 154.817 7.53027L154.619 7.79395C154.259 7.53027 153.784 7.39844 153.195 7.39844L147.632 7.58301C147.078 7.61816 146.705 7.8291 146.511 8.21582L146.076 8.00488C146.146 7.85547 146.182 7.68408 146.182 7.49072C146.182 7.29736 146.032 7.00293 145.733 6.60742C145.435 6.20312 145.021 5.8999 144.494 5.69775C143.976 5.48682 143.286 5.38135 142.424 5.38135C141.572 5.38135 140.877 5.50439 140.341 5.75049C139.805 5.99658 139.379 6.33496 139.062 6.76562C138.447 7.63574 138.14 8.78711 138.14 10.2197C138.14 11.6523 138.597 12.8345 139.511 13.7661C140.434 14.689 141.638 15.1504 143.123 15.1504C144.608 15.1504 145.738 15.0537 146.511 14.8604C146.652 14.8252 146.788 14.8076 146.92 14.8076C147.052 14.8076 147.254 14.9131 147.526 15.124L147.685 14.9131ZM165.654 16.8115L165.443 15.1768V15.0317C165.627 14.7065 165.878 14.5439 166.194 14.5439L176.952 14.5571C177.488 14.5571 177.923 14.3857 178.257 14.043L178.521 14.3066C178.134 14.6934 177.941 15.4316 177.941 16.5215C177.941 16.5215 177.941 16.7764 177.941 17.2861C177.941 18.1738 178.134 18.8198 178.521 19.2241L178.257 19.4878C177.915 19.145 177.479 18.9736 176.952 18.9736H161.356C160.574 18.9736 159.998 19.123 159.629 19.4219C159.207 19.7734 158.996 20.7666 158.996 22.4014C158.996 23.0605 159.097 24.0317 159.299 25.3149C159.501 26.6069 159.603 27.5781 159.603 28.2285C159.603 29.1689 159.269 29.6392 158.601 29.6392C157.88 29.6392 157.52 29.1558 157.52 28.189C157.52 27.5298 157.665 26.5542 157.955 25.2622C158.245 23.9702 158.39 22.9902 158.39 22.3223L158.324 17.9058V2.53369C158.324 1.98877 158.157 1.55371 157.823 1.22852L158.086 0.95166C158.447 1.29443 158.886 1.46582 159.405 1.46582H176.333C176.869 1.46582 177.308 1.29443 177.651 0.95166L177.915 1.22852C177.528 1.61523 177.334 2.34473 177.334 3.41699V4.15527C177.334 5.0957 177.528 5.75488 177.915 6.13281L177.651 6.3833C177.211 5.93506 176.179 5.71094 174.553 5.71094L168 6.01416C166.383 6.01416 165.355 5.79004 164.916 5.3418L164.639 5.60547C164.981 5.93945 165.153 6.3833 165.153 6.93701C165.153 7.48193 164.981 7.92139 164.639 8.25537L164.916 8.50586C165.337 8.06641 166.225 7.84668 167.579 7.84668L173.103 8.1499C174.465 8.1499 175.366 7.93018 175.805 7.49072L176.082 7.75439C175.695 8.14111 175.502 8.88379 175.502 9.98242V10.7207C175.502 11.626 175.695 12.2808 176.082 12.6851L175.805 12.9619C175.383 12.5225 174.491 12.3027 173.129 12.3027L167.605 12.5928C166.251 12.5928 165.355 12.373 164.916 11.9336L164.652 12.1973C164.916 12.4609 165.069 12.7773 165.113 13.1465C165.157 13.5068 165.184 13.7661 165.192 13.9243C165.201 14.0737 165.201 14.311 165.192 14.6362C165.184 14.9526 165.179 15.1416 165.179 15.2031L164.955 16.7852C164.955 17.1016 165.069 17.2598 165.298 17.2598C165.535 17.2598 165.654 17.1104 165.654 16.8115Z" fill="white"/>
</svg>
